<svg width="134" height="22" xmlns="http://www.w3.org/2000/svg"><path d="M21.13 3.404l.353-2.347H3.976l-.264 1.72c-.286 1.789-.705 3.398-1.277 4.806-.683 1.654-1.542 2.861-2.4 3.42.858.559 1.695 1.743 2.4 3.42.572 1.385 1.013 2.994 1.277 4.805l.264 1.72h17.507l-.352-2.346c-.44-2.906-1.278-5.52-2.423-7.51l-.044-.067.044-.067c1.123-2.034 1.982-4.649 2.423-7.554zm-5.35 11.04c.286.671.55 1.431.77 2.28H7.434c-.485-2.234-1.212-4.179-2.114-5.744.902-1.564 1.607-3.509 2.114-5.744h9.094c-.22.85-.484 1.61-.77 2.28-.75 1.81-1.674 3.017-2.533 3.464.881.448 1.806 1.632 2.555 3.465zM31.868 21.3h4.717V5.342h4.973V.977H26.894v4.365h4.974V21.3zM48.297 8.874V.977H43.58V21.3h4.717v-8.087h5.444V21.3h4.717V.977H53.74v7.897h-5.444zm18.316 4.366h7.514V8.874h-7.514V5.342h8.824V.977h-13.54V21.3h13.54v-4.365h-8.824V13.24zM100.783.977h-5.818l-5.97 7.485V.977h-4.717V21.3h4.717v-6.128l1.88-2.281 4.679 8.41h5.495L94.02 9.205l6.762-8.23zm5.993 12.263h7.514V8.874h-7.514V5.342h8.825V.977H102.06V21.3h13.54v-4.365h-8.824V13.24zM122.327.977h-4.09V21.3h4.717V10.66l6.766 10.64h4.09V.977h-4.716v10.618L122.327.977z" fill-rule="evenodd"/></svg>